<mxfile host="app.diagrams.net" modified="2023-03-29T09:36:53.366Z" agent="Mozilla/5.0 (Macintosh; Intel Mac OS X 10_15_7) AppleWebKit/537.36 (KHTML, like Gecko) Chrome/111.0.0.0 Safari/537.36 Edg/111.0.1661.54" etag="qsXv6Z8fx7QPqaQq0xS8" version="21.1.1" type="github">
  <diagram name="Page-1" id="0dETcMMRxrlC8p1lNOKp">
    <mxGraphModel dx="1185" dy="795" grid="1" gridSize="10" guides="1" tooltips="1" connect="1" arrows="1" fold="1" page="1" pageScale="1" pageWidth="827" pageHeight="1169" math="0" shadow="0">
      <root>
        <mxCell id="0" />
        <mxCell id="1" parent="0" />
        <mxCell id="X_DRRjwLALHDRUyH7Zs5-1" value="head" style="ellipse;whiteSpace=wrap;html=1;aspect=fixed;" vertex="1" parent="1">
          <mxGeometry x="150" y="150" width="40" height="40" as="geometry" />
        </mxCell>
        <mxCell id="X_DRRjwLALHDRUyH7Zs5-17" style="edgeStyle=orthogonalEdgeStyle;rounded=0;orthogonalLoop=1;jettySize=auto;html=1;exitX=1;exitY=0.5;exitDx=0;exitDy=0;" edge="1" parent="1" source="X_DRRjwLALHDRUyH7Zs5-2" target="X_DRRjwLALHDRUyH7Zs5-7">
          <mxGeometry relative="1" as="geometry" />
        </mxCell>
        <mxCell id="X_DRRjwLALHDRUyH7Zs5-2" value="origin" style="ellipse;whiteSpace=wrap;html=1;" vertex="1" parent="1">
          <mxGeometry x="475" y="365" width="40" height="40" as="geometry" />
        </mxCell>
        <mxCell id="X_DRRjwLALHDRUyH7Zs5-14" style="edgeStyle=orthogonalEdgeStyle;rounded=0;orthogonalLoop=1;jettySize=auto;html=1;entryX=0;entryY=0.5;entryDx=0;entryDy=0;" edge="1" parent="1" source="X_DRRjwLALHDRUyH7Zs5-4" target="X_DRRjwLALHDRUyH7Zs5-13">
          <mxGeometry relative="1" as="geometry">
            <Array as="points">
              <mxPoint x="200" y="385" />
              <mxPoint x="200" y="615" />
            </Array>
          </mxGeometry>
        </mxCell>
        <mxCell id="X_DRRjwLALHDRUyH7Zs5-15" style="edgeStyle=orthogonalEdgeStyle;rounded=0;orthogonalLoop=1;jettySize=auto;html=1;entryX=0;entryY=0.5;entryDx=0;entryDy=0;" edge="1" parent="1" source="X_DRRjwLALHDRUyH7Zs5-4" target="X_DRRjwLALHDRUyH7Zs5-12">
          <mxGeometry relative="1" as="geometry">
            <mxPoint x="320" y="508" as="targetPoint" />
            <Array as="points">
              <mxPoint x="280" y="385" />
              <mxPoint x="280" y="520" />
            </Array>
          </mxGeometry>
        </mxCell>
        <mxCell id="X_DRRjwLALHDRUyH7Zs5-16" style="edgeStyle=orthogonalEdgeStyle;rounded=0;orthogonalLoop=1;jettySize=auto;html=1;entryX=0;entryY=0.5;entryDx=0;entryDy=0;" edge="1" parent="1" source="X_DRRjwLALHDRUyH7Zs5-4" target="X_DRRjwLALHDRUyH7Zs5-2">
          <mxGeometry relative="1" as="geometry" />
        </mxCell>
        <mxCell id="X_DRRjwLALHDRUyH7Zs5-4" value="git" style="ellipse;whiteSpace=wrap;html=1;" vertex="1" parent="1">
          <mxGeometry x="40" y="345" width="120" height="80" as="geometry" />
        </mxCell>
        <mxCell id="X_DRRjwLALHDRUyH7Zs5-6" value="commit 1" style="text;html=1;strokeColor=none;fillColor=none;align=center;verticalAlign=middle;whiteSpace=wrap;rounded=0;" vertex="1" parent="1">
          <mxGeometry x="50" y="275" width="60" height="30" as="geometry" />
        </mxCell>
        <mxCell id="X_DRRjwLALHDRUyH7Zs5-7" value="github" style="ellipse;whiteSpace=wrap;html=1;" vertex="1" parent="1">
          <mxGeometry x="565" y="345" width="120" height="80" as="geometry" />
        </mxCell>
        <mxCell id="X_DRRjwLALHDRUyH7Zs5-8" value="commit 2" style="text;html=1;strokeColor=none;fillColor=none;align=center;verticalAlign=middle;whiteSpace=wrap;rounded=0;" vertex="1" parent="1">
          <mxGeometry x="50" y="235" width="60" height="30" as="geometry" />
        </mxCell>
        <mxCell id="X_DRRjwLALHDRUyH7Zs5-9" value="commit 3" style="text;html=1;strokeColor=none;fillColor=none;align=center;verticalAlign=middle;whiteSpace=wrap;rounded=0;" vertex="1" parent="1">
          <mxGeometry x="50" y="195" width="60" height="30" as="geometry" />
        </mxCell>
        <mxCell id="X_DRRjwLALHDRUyH7Zs5-10" value="gitlab" style="ellipse;whiteSpace=wrap;html=1;" vertex="1" parent="1">
          <mxGeometry x="565" y="575" width="120" height="80" as="geometry" />
        </mxCell>
        <mxCell id="X_DRRjwLALHDRUyH7Zs5-11" value="github" style="ellipse;whiteSpace=wrap;html=1;" vertex="1" parent="1">
          <mxGeometry x="565" y="480" width="120" height="80" as="geometry" />
        </mxCell>
        <mxCell id="X_DRRjwLALHDRUyH7Zs5-18" style="edgeStyle=orthogonalEdgeStyle;rounded=0;orthogonalLoop=1;jettySize=auto;html=1;entryX=0;entryY=0.5;entryDx=0;entryDy=0;" edge="1" parent="1" source="X_DRRjwLALHDRUyH7Zs5-12" target="X_DRRjwLALHDRUyH7Zs5-11">
          <mxGeometry relative="1" as="geometry" />
        </mxCell>
        <mxCell id="X_DRRjwLALHDRUyH7Zs5-12" value="origin 2" style="ellipse;whiteSpace=wrap;html=1;" vertex="1" parent="1">
          <mxGeometry x="410" y="500" width="40" height="40" as="geometry" />
        </mxCell>
        <mxCell id="X_DRRjwLALHDRUyH7Zs5-19" style="edgeStyle=orthogonalEdgeStyle;rounded=0;orthogonalLoop=1;jettySize=auto;html=1;entryX=0;entryY=0.5;entryDx=0;entryDy=0;" edge="1" parent="1" source="X_DRRjwLALHDRUyH7Zs5-13" target="X_DRRjwLALHDRUyH7Zs5-10">
          <mxGeometry relative="1" as="geometry" />
        </mxCell>
        <mxCell id="X_DRRjwLALHDRUyH7Zs5-13" value="origin 3" style="ellipse;whiteSpace=wrap;html=1;" vertex="1" parent="1">
          <mxGeometry x="240" y="595" width="40" height="40" as="geometry" />
        </mxCell>
        <mxCell id="X_DRRjwLALHDRUyH7Zs5-20" value="main" style="rounded=0;whiteSpace=wrap;html=1;" vertex="1" parent="1">
          <mxGeometry x="40" y="80" width="70" height="20" as="geometry" />
        </mxCell>
        <mxCell id="X_DRRjwLALHDRUyH7Zs5-23" value="feature" style="rounded=0;whiteSpace=wrap;html=1;" vertex="1" parent="1">
          <mxGeometry x="260" y="120" width="70" height="20" as="geometry" />
        </mxCell>
        <mxCell id="X_DRRjwLALHDRUyH7Zs5-24" value="commit b1" style="text;html=1;strokeColor=none;fillColor=none;align=center;verticalAlign=middle;whiteSpace=wrap;rounded=0;" vertex="1" parent="1">
          <mxGeometry x="265" y="260" width="60" height="30" as="geometry" />
        </mxCell>
        <mxCell id="X_DRRjwLALHDRUyH7Zs5-26" value="head" style="ellipse;whiteSpace=wrap;html=1;aspect=fixed;" vertex="1" parent="1">
          <mxGeometry x="335" y="200" width="40" height="40" as="geometry" />
        </mxCell>
        <mxCell id="X_DRRjwLALHDRUyH7Zs5-27" value="git push origin3 feature" style="text;html=1;strokeColor=none;fillColor=none;align=center;verticalAlign=middle;whiteSpace=wrap;rounded=0;" vertex="1" parent="1">
          <mxGeometry x="385" y="625" width="170" height="30" as="geometry" />
        </mxCell>
        <mxCell id="X_DRRjwLALHDRUyH7Zs5-28" value="commit 4" style="text;html=1;strokeColor=none;fillColor=none;align=center;verticalAlign=middle;whiteSpace=wrap;rounded=0;" vertex="1" parent="1">
          <mxGeometry x="50" y="155" width="60" height="30" as="geometry" />
        </mxCell>
        <mxCell id="X_DRRjwLALHDRUyH7Zs5-29" value="" style="triangle;whiteSpace=wrap;html=1;" vertex="1" parent="1">
          <mxGeometry y="185" width="70" height="10" as="geometry" />
        </mxCell>
        <mxCell id="X_DRRjwLALHDRUyH7Zs5-30" value="feature / buton" style="rounded=0;whiteSpace=wrap;html=1;" vertex="1" parent="1">
          <mxGeometry x="550" y="120" width="70" height="20" as="geometry" />
        </mxCell>
        <mxCell id="X_DRRjwLALHDRUyH7Zs5-31" value="commit a3" style="text;html=1;strokeColor=none;fillColor=none;align=center;verticalAlign=middle;whiteSpace=wrap;rounded=0;" vertex="1" parent="1">
          <mxGeometry x="550" y="185" width="60" height="30" as="geometry" />
        </mxCell>
        <mxCell id="X_DRRjwLALHDRUyH7Zs5-32" value="Gopi" style="shape=umlActor;verticalLabelPosition=bottom;verticalAlign=top;html=1;outlineConnect=0;" vertex="1" parent="1">
          <mxGeometry x="640" y="60" width="30" height="60" as="geometry" />
        </mxCell>
        <mxCell id="X_DRRjwLALHDRUyH7Zs5-33" value="Ankur" style="shape=umlActor;verticalLabelPosition=bottom;verticalAlign=top;html=1;outlineConnect=0;" vertex="1" parent="1">
          <mxGeometry x="340" y="60" width="30" height="60" as="geometry" />
        </mxCell>
        <mxCell id="X_DRRjwLALHDRUyH7Zs5-36" value="commit a2" style="text;html=1;strokeColor=none;fillColor=none;align=center;verticalAlign=middle;whiteSpace=wrap;rounded=0;" vertex="1" parent="1">
          <mxGeometry x="550" y="215" width="60" height="30" as="geometry" />
        </mxCell>
        <mxCell id="X_DRRjwLALHDRUyH7Zs5-37" value="commit a1" style="text;html=1;strokeColor=none;fillColor=none;align=center;verticalAlign=middle;whiteSpace=wrap;rounded=0;" vertex="1" parent="1">
          <mxGeometry x="550" y="245" width="60" height="30" as="geometry" />
        </mxCell>
        <mxCell id="X_DRRjwLALHDRUyH7Zs5-38" value="commit a4" style="text;html=1;strokeColor=none;fillColor=none;align=center;verticalAlign=middle;whiteSpace=wrap;rounded=0;" vertex="1" parent="1">
          <mxGeometry x="550" y="160" width="60" height="30" as="geometry" />
        </mxCell>
        <mxCell id="X_DRRjwLALHDRUyH7Zs5-39" value="commit b2" style="text;html=1;strokeColor=none;fillColor=none;align=center;verticalAlign=middle;whiteSpace=wrap;rounded=0;" vertex="1" parent="1">
          <mxGeometry x="260" y="235" width="60" height="30" as="geometry" />
        </mxCell>
        <mxCell id="X_DRRjwLALHDRUyH7Zs5-40" value="commit b3" style="text;html=1;strokeColor=none;fillColor=none;align=center;verticalAlign=middle;whiteSpace=wrap;rounded=0;" vertex="1" parent="1">
          <mxGeometry x="260" y="210" width="60" height="30" as="geometry" />
        </mxCell>
        <mxCell id="X_DRRjwLALHDRUyH7Zs5-42" value="head" style="ellipse;whiteSpace=wrap;html=1;aspect=fixed;" vertex="1" parent="1">
          <mxGeometry x="630" y="155" width="40" height="40" as="geometry" />
        </mxCell>
        <mxCell id="X_DRRjwLALHDRUyH7Zs5-45" value="commit b" style="text;html=1;strokeColor=none;fillColor=none;align=center;verticalAlign=middle;whiteSpace=wrap;rounded=0;" vertex="1" parent="1">
          <mxGeometry x="550" y="140" width="60" height="30" as="geometry" />
        </mxCell>
        <mxCell id="X_DRRjwLALHDRUyH7Zs5-46" value="pr" style="rounded=1;whiteSpace=wrap;html=1;" vertex="1" parent="1">
          <mxGeometry x="700" y="245" width="50" height="25" as="geometry" />
        </mxCell>
      </root>
    </mxGraphModel>
  </diagram>
</mxfile>
